<?xml version="1.0" encoding="iso-8859-1"?>
<!-- Generator: Adobe Illustrator 19.0.0, SVG Export Plug-In . SVG Version: 6.00 Build 0)  -->
<svg version="1.1" id="Capa_1" xmlns="http://www.w3.org/2000/svg" xmlns:xlink="http://www.w3.org/1999/xlink" x="0px" y="0px"
	 viewBox="0 0 471.644 471.644" style="enable-background:new 0 0 471.644 471.644;" xml:space="preserve">
<g>
	<g>
		<path d="M235.822,53.741c-100.518,0.044-182.055,81.402-182.32,181.92v50c-0.025,0.346-0.025,0.694,0,1.04v32.96
			c0,8.837,7.163,16,16,16h30.32c8.837,0,16-7.163,16-16v-76c0-8.837-7.163-16-16-16h-29.92
			c4.499-91.569,82.377-162.153,173.946-157.654c85.274,4.19,153.464,72.38,157.654,157.654h-29.68c-8.837,0-16,7.163-16,16v76
			c0,8.837,7.163,16,16,16h30c8.837,0,16-7.163,16-16v-84C417.558,135.267,336.216,53.961,235.822,53.741z"/>
	</g>
</g>
<g>
	<g>
		<path d="M37.742,243.661C16.888,243.671-0.01,260.584,0,281.439c0.01,20.84,16.902,37.732,37.742,37.742c4.418,0,8-3.582,8-8
			v-59.52C45.742,247.242,42.16,243.661,37.742,243.661z"/>
	</g>
</g>
<g>
	<g>
		<path d="M433.902,244.141c-4.418,0-8,3.582-8,8v59.52c0,4.418,3.582,8,8,8c20.854-0.01,37.752-16.924,37.742-37.778
			C471.634,261.042,454.742,244.151,433.902,244.141z"/>
	</g>
</g>
<g>
	<g>
		<path d="M168.622,208.221c-25.6,0-36.8-9.28-36.8-10.48v0v201.6c0,10.25,8.31,18.56,18.56,18.56h170.56
			c10.249,0.178,18.702-7.986,18.88-18.234c0.004-0.215,0.004-0.43,0-0.646v-190.8H168.622z"/>
	</g>
</g>
<g>
	<g>
		<path d="M334.542,155.661h-175.28c-12.08,0-25.84,6.48-25.84,18.72c-0.036,5.497,2.296,10.743,6.4,14.4
			c8.257,5.436,18.053,8.046,27.92,7.44h156.64c-2.74-2.004-4.804-4.794-5.92-8h-59.76c-3.314,0-6-2.686-6-6s2.686-6,6-6h60
			c2.591-6.289,8.718-10.395,15.52-10.4c2.916,0,5.28-2.364,5.28-5.28C339.417,157.851,337.233,155.702,334.542,155.661z"/>
	</g>
</g>
<g>
</g>
<g>
</g>
<g>
</g>
<g>
</g>
<g>
</g>
<g>
</g>
<g>
</g>
<g>
</g>
<g>
</g>
<g>
</g>
<g>
</g>
<g>
</g>
<g>
</g>
<g>
</g>
<g>
</g>
</svg>
