<?xml version="1.0" encoding="iso-8859-1"?>
<!-- Generator: Adobe Illustrator 19.0.0, SVG Export Plug-In . SVG Version: 6.00 Build 0)  -->
<svg version="1.1" id="Capa_1" xmlns="http://www.w3.org/2000/svg" xmlns:xlink="http://www.w3.org/1999/xlink" x="0px" y="0px"
	 viewBox="0 0 437.392 437.392" style="enable-background:new 0 0 437.392 437.392;" xml:space="preserve">
<g>
	<g>
		<path d="M339.458,261.76c-26.862-27.68-71.077-28.344-98.758-1.482c-0.502,0.487-0.996,0.981-1.482,1.482
			c-3.604,2.556-4.454,7.549-1.898,11.153s7.549,4.454,11.153,1.898c0.719-0.51,1.35-1.136,1.865-1.852
			c20.707-21.34,54.792-21.854,76.133-1.147c0.388,0.377,0.771,0.759,1.147,1.147c1.592,1.629,3.804,2.502,6.08,2.4
			c4.418,0.026,8.021-3.535,8.047-7.953C341.758,265.297,340.936,263.267,339.458,261.76z"/>
	</g>
</g>
<g>
	<g>
		<g>
			<polygon points="289.298,208.4 289.298,208.4 289.298,208.4 			"/>
			<path d="M354.098,235.68c-16.932-17.613-40.369-27.48-64.8-27.28c-24.154,0.019-47.26,9.868-64,27.28
				c-3.071,3.181-2.981,8.249,0.2,11.32c3.181,3.071,8.249,2.981,11.32-0.2c28.273-29.205,74.868-29.96,104.072-1.688
				c0.572,0.553,1.134,1.116,1.688,1.688c3.071,3.181,8.139,3.271,11.32,0.2C357.08,243.929,357.169,238.861,354.098,235.68z"/>
		</g>
	</g>
</g>
<g>
	<g>
		<path d="M339.258,344.84c-3.181-3.071-8.249-2.981-11.32,0.2c-20.707,21.34-54.792,21.854-76.133,1.147
			c-0.388-0.377-0.771-0.759-1.147-1.147c-3.071-3.181-8.139-3.271-11.32-0.2c-3.181,3.071-3.271,8.139-0.2,11.32h0.08
			c26.862,27.68,71.077,28.344,98.758,1.482c0.502-0.487,0.996-0.981,1.482-1.482C342.529,352.979,342.44,347.911,339.258,344.84z"
			/>
	</g>
</g>
<g>
	<g>
		<path d="M352.698,371c-3.181-3.071-8.249-2.981-11.32,0.2h0.8c-28.273,29.205-74.868,29.96-104.072,1.688
			c-0.572-0.553-1.134-1.116-1.688-1.688c-3.071-3.181-8.139-3.271-11.32-0.2c-3.181,3.071-3.271,8.139-0.2,11.32
			c16.74,17.412,39.846,27.261,64,27.28c24.154-0.019,47.26-9.868,64-27.28C355.969,379.139,355.88,374.071,352.698,371z"/>
	</g>
</g>
<g>
	<g>
		<path d="M385.207,223.823c-14.459-16.085-32.758-28.245-53.189-35.343v-114c0-4.418-3.582-8-8-8
			c-13.94-0.785-24.604-12.722-23.818-26.662c0.723-12.843,10.975-23.095,23.818-23.818c4.418,0,8-3.582,8-8s-3.582-8-8-8H60.578
			c-22.767,0.044-41.2,18.513-41.2,41.28v325.76c0.044,15.402,12.518,27.876,27.92,27.92h147.52
			c47.258,52.575,128.189,56.884,180.763,9.626C428.156,357.328,432.466,276.397,385.207,223.823z M36.76,39.818
			C37.483,26.975,47.735,16.723,60.578,16h230.88c-3.893,4.869-6.629,10.559-8,16.64h-73.12c-4.418,0-8,3.582-8,8
			c0,4.418,3.582,8,8,8h73.12c1.197,6.502,3.941,12.621,8,17.84H60.578C46.639,65.695,35.975,53.758,36.76,39.818z M47.298,379.04
			c-6.565-0.044-11.876-5.355-11.92-11.92V73.6c7.165,5.705,16.041,8.832,25.2,8.88h255.44v101.36
			c-69.161-14.635-137.091,29.567-151.726,98.728c-7.042,33.278-0.549,67.99,18.046,96.472H47.298z M289.298,420.96
			c-61.856,0-112-50.144-112-112s50.144-112,112-112s112,50.144,112,112S351.154,420.96,289.298,420.96z"/>
	</g>
</g>
<g>
	<g>
		<path d="M289.378,273.68c-19.485,0-35.28,15.795-35.28,35.28s15.795,35.28,35.28,35.28s35.28-15.795,35.28-35.28
			S308.863,273.68,289.378,273.68z M289.298,328.24c-10.648,0-19.28-8.632-19.28-19.28c0-10.648,8.632-19.28,19.28-19.28
			c10.648,0,19.28,8.632,19.28,19.28C308.578,319.608,299.946,328.24,289.298,328.24z"/>
	</g>
</g>
<g>
</g>
<g>
</g>
<g>
</g>
<g>
</g>
<g>
</g>
<g>
</g>
<g>
</g>
<g>
</g>
<g>
</g>
<g>
</g>
<g>
</g>
<g>
</g>
<g>
</g>
<g>
</g>
<g>
</g>
</svg>
