<?xml version="1.0" encoding="iso-8859-1"?>
<!-- Generator: Adobe Illustrator 19.0.0, SVG Export Plug-In . SVG Version: 6.00 Build 0)  -->
<svg version="1.1" id="Capa_1" xmlns="http://www.w3.org/2000/svg" xmlns:xlink="http://www.w3.org/1999/xlink" x="0px" y="0px"
	 viewBox="0 0 424.96 424.96" style="enable-background:new 0 0 424.96 424.96;" xml:space="preserve">
<g>
	<g>
		<path d="M75.84,76.48c0,0-2.48,0-6.16,0C52.742,77.063,36.141,71.652,22.8,61.2c-0.8-0.72-1.6-1.6-2.32-2.32v308.16
			c0.044,15.402,12.518,27.876,27.92,27.92h148.48c-4.524-4.998-8.644-10.349-12.32-16c-13.106-20.258-20.079-43.872-20.08-68v0
			c-0.35-69.278,55.527-125.722,124.804-126.072c14.952-0.076,29.798,2.523,43.836,7.672V76.48H75.84z"/>
	</g>
</g>
<g>
	<g>
		<path d="M324.48,0H61.68C41.131,0.094,23.793,15.316,21.04,35.68c1.532,6.437,4.927,12.28,9.76,16.8
			c4.609,4.085,10.036,7.14,15.92,8.96c9.25,2.78,18.921,3.891,28.56,3.28h240.48c-7.775-3.122-13.497-9.894-15.28-18.08h-88.96
			c-3.314,0-6-2.686-6-6c0-3.314,2.686-6,6-6h88.96c2.932-10.881,12.732-18.492,24-18.64c4.418,0,8-3.582,8-8S328.898,0,324.48,0z"
			/>
	</g>
</g>
<g>
	<g>
		<g>
			<polygon points="290.48,256.56 290.48,256.56 290.48,256.56 			"/>
			<path d="M290.48,196.96c-62.96,0-114,51.04-114,114s51.04,114,114,114s114-51.04,114-114
				C404.392,248.036,353.404,197.048,290.48,196.96z M227.6,239.52c33.978-34.75,89.693-35.375,124.443-1.397
				c0.471,0.46,0.937,0.926,1.397,1.397c1.992,2.318,1.923,5.763-0.16,8c-2.343,2.34-6.137,2.34-8.48,0
				c-29.062-29.978-76.924-30.72-106.902-1.658c-0.561,0.544-1.114,1.097-1.658,1.658c-2.678,1.952-6.431,1.363-8.383-1.314
				C226.422,244.236,226.32,241.594,227.6,239.52z M329.592,349.288c0.272-0.267,0.542-0.536,0.808-0.808
				c1.74-2.82,5.437-3.695,8.257-1.954s3.695,5.437,1.954,8.257c-0.409,0.662-0.943,1.239-1.571,1.697
				c-26.095,26.885-69.044,27.526-95.93,1.43c-0.484-0.47-0.961-0.947-1.43-1.43c-1.97-2.338-1.867-5.784,0.24-8
				c2.343-2.34,6.138-2.34,8.48,0C272.045,370.571,307.5,370.933,329.592,349.288z M257.2,310.96c0-18.38,14.9-33.28,33.28-33.28
				c18.38,0,33.28,14.9,33.28,33.28c0,18.38-14.9,33.28-33.28,33.28C272.1,344.24,257.2,329.34,257.2,310.96z M340.514,273.903
				c-1.952,2.678-5.705,3.266-8.383,1.314c-0.629-0.458-1.163-1.035-1.572-1.697c-10.49-10.88-24.967-17.006-40.08-16.96
				c-15.085-0.024-29.529,6.1-40,16.96c-1.74,2.82-5.437,3.695-8.257,1.954s-3.695-5.437-1.954-8.257
				c0.409-0.662,0.943-1.239,1.571-1.697c26.095-26.885,69.044-27.526,95.93-1.43c0.484,0.47,0.961,0.947,1.43,1.43
				C341.878,267.472,342.466,271.225,340.514,273.903z M355.091,381.183c-0.409,0.662-0.943,1.239-1.571,1.697h-0.08
				c-16.45,17.083-39.164,26.706-62.88,26.64c-23.716,0.066-46.43-9.557-62.88-26.64c-1.74-2.82-0.865-6.517,1.954-8.257
				c2.074-1.28,4.716-1.178,6.686,0.257c29.062,29.978,76.924,30.72,106.902,1.658c0.561-0.544,1.114-1.097,1.658-1.658
				c1.74-2.82,5.437-3.695,8.257-1.954C355.957,374.666,356.832,378.363,355.091,381.183z"/>
		</g>
	</g>
</g>
<g>
	<g>
		<circle cx="290.48" cy="310.96" r="21.28"/>
	</g>
</g>
<g>
</g>
<g>
</g>
<g>
</g>
<g>
</g>
<g>
</g>
<g>
</g>
<g>
</g>
<g>
</g>
<g>
</g>
<g>
</g>
<g>
</g>
<g>
</g>
<g>
</g>
<g>
</g>
<g>
</g>
</svg>
