<?xml version="1.0" encoding="iso-8859-1"?>
<!-- Generator: Adobe Illustrator 19.0.0, SVG Export Plug-In . SVG Version: 6.00 Build 0)  -->
<svg version="1.1" id="Capa_1" xmlns="http://www.w3.org/2000/svg" xmlns:xlink="http://www.w3.org/1999/xlink" x="0px" y="0px"
	 viewBox="0 0 394.882 394.882" style="enable-background:new 0 0 394.882 394.882;" xml:space="preserve">
<g>
	<g>
		<path d="M218.521,199.68c-5.044-5.354-12.171-8.246-19.52-7.92c-7.118-0.243-13.976,2.688-18.72,8
			c-4.531,5.349-7.469,11.863-8.48,18.8h54.72C225.792,211.611,223.006,205.037,218.521,199.68z"/>
	</g>
</g>
<g>
	<g>
		<path d="M254.361,266.8c-1.54-0.129-3.081,0.235-4.4,1.04c-4.56,4.32-8,8-11.36,10.4c-3.237,2.919-6.687,5.593-10.32,8
			c-3.828,2.5-8.007,4.414-12.4,5.68c-4.533,1.251-9.217,1.87-13.92,1.84c-15.717,0.196-30.127-8.724-36.96-22.88
			c-3.963-7.919-5.992-16.665-5.92-25.52v-6h79.52c6.849,0.469,13.716-0.625,20.08-3.2v0c3.28-1.68,4.96-6.08,4.96-13.12
			c-0.077-9.543-2.523-18.917-7.12-27.28c-4.983-9.086-12.41-16.596-21.44-21.68c-10.628-5.998-22.68-9.011-34.88-8.72
			c-9.804-0.127-19.545,1.583-28.72,5.04c-8.071,3.054-15.346,7.895-21.28,14.16c-5.909,6.438-10.405,14.041-13.2,22.32
			c-3.156,9.326-4.724,19.115-4.64,28.96c-1.045,19.069,5.581,37.764,18.4,51.92c14,13.228,32.855,20.064,52.08,18.88
			c8.991,0.271,17.965-0.946,26.56-3.6c6.571-2.201,12.734-5.471,18.24-9.68c4.206-3.118,7.788-6.998,10.56-11.44
			c1.827-2.658,2.93-5.746,3.2-8.96c0.195-1.661-0.397-3.318-1.6-4.48C258.255,267.272,256.319,266.674,254.361,266.8z
			 M159.081,223.68c0.572-11.739,4.953-22.973,12.48-32c7.018-7.635,16.993-11.864,27.36-11.6
			c10.565-0.378,20.787,3.786,28.08,11.44c7.616,9.125,11.854,20.596,12,32.48l0.48,6.32l-81.04-0.16L159.081,223.68z"/>
	</g>
</g>
<g>
	<g>
		<path d="M345.801,0H82.281c-20.58,0.054-37.963,15.286-40.72,35.68c1.493,6.522,4.89,12.453,9.76,17.04
			c4.66,3.983,10.114,6.928,16,8.64c9.25,2.782,18.921,3.892,28.56,3.28h240.56c-12.946-5.11-19.298-19.746-14.188-32.692
			c3.813-9.661,13.163-15.993,23.548-15.948c4.418,0,8-3.582,8-8S350.219,0,345.801,0z"/>
	</g>
</g>
<g>
	<g>
		<path d="M96.441,76.48c-2.047,0.211-4.103,0.318-6.16,0.32c-16.958,0.538-33.561-4.931-46.88-15.44c-0.8-0.72-1.6-1.6-2.32-2.4
			v308c0.043,15.464,12.614,27.965,28.078,27.922c0.081,0,0.161-0.001,0.242-0.002h256c15.402-0.044,27.876-12.518,27.92-27.92
			V76.48H96.441z M175.401,265.52L175.401,265.52c4.799,10.239,15.174,16.696,26.48,16.48c3.619,0.042,7.226-0.416,10.72-1.36
			c3.26-0.949,6.361-2.378,9.2-4.24c3.157-2.122,6.152-4.475,8.96-7.04c2.88-2.56,6.64-6,11.28-10.32
			c3.464-2.831,7.851-4.284,12.32-4.08c4.852-0.173,9.592,1.483,13.28,4.64c3.752,3.405,5.802,8.297,5.6,13.36
			c-0.249,5.298-1.906,10.435-4.8,14.88c-3.525,5.748-8.114,10.771-13.52,14.8c-6.649,4.986-14.085,8.826-22,11.36
			c-9.664,3.107-19.77,4.62-29.92,4.48c-22.431,1.233-44.367-6.909-60.56-22.48c-15.012-16.333-22.85-38.003-21.76-60.16
			c-0.09-11.178,1.695-22.292,5.28-32.88c3.407-9.88,8.859-18.93,16-26.56c7.134-7.563,15.885-13.416,25.6-17.12
			c10.552-3.993,21.759-5.974,33.04-5.84c14.259-0.372,28.354,3.111,40.8,10.08c10.897,6.195,19.847,15.311,25.84,26.32
			c5.522,10.057,8.463,21.327,8.56,32.8c1.387,9.557-3.09,19.014-11.36,24c-8.031,3.617-16.802,5.289-25.6,4.88h-67.6
			C171.783,256.397,173.192,261.138,175.401,265.52z"/>
	</g>
</g>
<g>
</g>
<g>
</g>
<g>
</g>
<g>
</g>
<g>
</g>
<g>
</g>
<g>
</g>
<g>
</g>
<g>
</g>
<g>
</g>
<g>
</g>
<g>
</g>
<g>
</g>
<g>
</g>
<g>
</g>
</svg>
