<?xml version="1.0" encoding="iso-8859-1"?>
<!-- Generator: Adobe Illustrator 19.0.0, SVG Export Plug-In . SVG Version: 6.00 Build 0)  -->
<svg version="1.1" id="Capa_1" xmlns="http://www.w3.org/2000/svg" xmlns:xlink="http://www.w3.org/1999/xlink" x="0px" y="0px"
	 viewBox="0 0 394.963 394.963" style="enable-background:new 0 0 394.963 394.963;" xml:space="preserve">
<g>
	<g>
		<path d="M345.841,66.48c-13.94,0.785-25.876-9.879-26.661-23.818c-0.785-13.94,9.879-25.876,23.818-26.661
			c0.947-0.053,1.896-0.053,2.843,0c4.418,0,8-3.582,8-8s-3.582-8-8-8H82.401c-22.798,0-41.28,18.482-41.28,41.28v325.76
			c0.043,15.464,12.613,27.965,28.077,27.923c0.108,0,0.215-0.001,0.323-0.003h256c15.402-0.044,27.876-12.518,27.92-27.92V74.48
			C353.447,70.213,350.103,66.693,345.841,66.48z M79.558,15.92c0.947-0.053,1.896-0.053,2.843,0h230.88
			c-11.515,14.857-11.515,35.623,0,50.48H82.401c-13.94,0.785-25.876-9.879-26.662-23.818C54.955,28.642,65.619,16.705,79.558,15.92
			z M337.841,367.04c0.004,6.583-5.33,11.923-11.913,11.927c-0.136,0-0.271-0.002-0.407-0.007h-256
			c-6.583,0-11.92-5.337-11.92-11.92V73.76c7.23,5.613,16.127,8.654,25.28,8.64h254.96V367.04z"/>
	</g>
</g>
<g>
	<g>
		<path d="M256.881,255.28c-4.469-0.204-8.856,1.249-12.32,4.08c-4.693,4.373-8.453,7.733-11.28,10.08
			c-2.819,2.455-5.814,4.701-8.96,6.72c-2.839,1.862-5.94,3.291-9.2,4.24c-3.494,0.944-7.101,1.402-10.72,1.36
			c-11.306,0.216-21.681-6.241-26.48-16.48c-2.257-4.267-3.746-8.897-4.4-13.68h67.28c8.798,0.409,17.569-1.263,25.6-4.88
			c8.27-4.986,12.747-14.443,11.36-24c-0.064-11.31-2.893-22.433-8.24-32.4c-5.993-11.009-14.943-20.125-25.84-26.32
			c-12.446-6.969-26.541-10.452-40.8-10.08c-11.281-0.134-22.488,1.847-33.04,5.84c-9.715,3.704-18.466,9.556-25.6,17.12
			c-7.141,7.63-12.593,16.68-16,26.56c-3.585,10.588-5.37,21.702-5.28,32.88c-1.09,22.157,6.748,43.827,21.76,60.16
			c16.278,15.576,38.311,23.664,60.8,22.32v0c10.15,0.14,20.256-1.373,29.92-4.48c7.915-2.534,15.351-6.374,22-11.36
			c5.406-4.029,9.995-9.052,13.52-14.8c2.894-4.445,4.551-9.582,4.8-14.88c0.202-5.063-1.848-9.955-5.6-13.36
			C266.473,256.763,261.733,255.107,256.881,255.28z M263.761,272.72c-0.27,3.214-1.373,6.302-3.2,8.96
			c-2.692,4.542-6.221,8.533-10.4,11.76c-5.595,4.147-11.84,7.337-18.48,9.44c-8.454,2.692-17.289,3.989-26.16,3.84
			c-19.225,1.184-38.08-5.652-52.08-18.88c-12.819-14.156-19.445-32.851-18.4-51.92c-0.083-9.76,1.458-19.466,4.56-28.72l0-0.4
			c2.795-8.279,7.291-15.882,13.2-22.32c5.934-6.265,13.209-11.106,21.28-14.16c9.16-3.393,18.873-5.048,28.64-4.88
			c12.173-0.277,24.196,2.736,34.8,8.72c9.03,5.084,16.457,12.594,21.44,21.68c4.597,8.363,7.043,17.737,7.12,27.28
			c0,7.04-1.68,11.44-4.96,13.12c-6.363,2.696-13.259,3.901-20.16,3.52h-79.44v5.68c-0.047,8.741,1.953,17.371,5.84,25.2
			c6.833,14.156,21.243,23.076,36.96,22.88c4.703,0.03,9.387-0.589,13.92-1.84c4.393-1.264,8.573-3.179,12.4-5.68
			c3.633-2.407,7.083-5.081,10.32-8c2.96-2.64,6.88-6.16,11.36-10.4c1.319-0.805,2.86-1.169,4.4-1.04
			c1.958-0.126,3.894,0.472,5.44,1.68C263.365,269.402,263.956,271.059,263.761,272.72z"/>
	</g>
</g>
<g>
	<g>
		<path d="M241.601,223.92c-0.169-11.894-4.435-23.366-12.08-32.48c-7.293-7.654-17.515-11.818-28.08-11.44
			c-10.367-0.264-20.342,3.965-27.36,11.6c-7.527,9.027-11.908,20.261-12.48,32l-0.64,6.48h81.04L241.601,223.92z M174.321,218.4
			c1.011-6.937,3.949-13.451,8.48-18.8c4.744-5.312,11.602-8.243,18.72-8c7.334-0.282,14.429,2.638,19.44,8
			c4.485,5.357,7.271,11.931,8,18.88L174.321,218.4z"/>
	</g>
</g>
<g>
</g>
<g>
</g>
<g>
</g>
<g>
</g>
<g>
</g>
<g>
</g>
<g>
</g>
<g>
</g>
<g>
</g>
<g>
</g>
<g>
</g>
<g>
</g>
<g>
</g>
<g>
</g>
<g>
</g>
</svg>
