<?xml version="1.0" encoding="iso-8859-1"?>
<!-- Generator: Adobe Illustrator 19.0.0, SVG Export Plug-In . SVG Version: 6.00 Build 0)  -->
<svg version="1.1" id="Capa_1" xmlns="http://www.w3.org/2000/svg" xmlns:xlink="http://www.w3.org/1999/xlink" x="0px" y="0px"
	 viewBox="0 0 512 512" style="enable-background:new 0 0 512 512;" xml:space="preserve">
<g>
	<g>
		<path d="M53.177,420.863H351.83c5.937,0,11.712-1.098,17.159-3.262c17.884-7.088,29.438-24.102,29.438-43.345V224.168
			c-0.001-4.2-3.405-7.604-7.605-7.604s-7.604,3.405-7.604,7.604v150.089c0,12.967-7.785,24.432-19.84,29.209
			c-3.657,1.454-7.542,2.19-11.549,2.19H53.177c-14.199,0-27.555,5.529-37.611,15.573c-0.123,0.123-0.237,0.252-0.359,0.377V53.177
			c0.001-20.936,17.034-37.969,37.97-37.969H351.83c8.385,0,16.266,3.266,22.195,9.194c2.971,2.97,7.784,2.97,10.754,0
			s2.97-7.784,0-10.753C375.977,4.847,364.276,0,351.83,0H53.177C23.855,0,0,23.855,0,53.177v405.646
			c0,8.11,1.777,15.892,5.28,23.131C14.108,500.207,32.909,512,53.177,512H351.83c25.694,0,46.597-20.904,46.597-46.597v-38.466
			c0-4.199-3.404-7.604-7.604-7.604s-7.604,3.405-7.604,7.604v38.466c0,17.308-14.081,31.389-31.389,31.389H53.177
			c-14.474,0-27.901-8.423-34.207-21.46c-2.497-5.159-3.762-10.713-3.762-16.509c0-10.135,3.949-19.669,11.112-26.841
			C33.499,424.812,43.036,420.863,53.177,420.863z"/>
	</g>
</g>
<g>
	<g>
		<path d="M366.182,431.505c-4.2,0-7.604,3.405-7.604,7.604v22.422c0,5.246-4.267,9.513-9.512,9.513H44.1
			c-4.2,0-7.604,3.405-7.604,7.604s3.404,7.604,7.604,7.604h304.966c13.63,0,24.72-11.09,24.72-24.721v-22.422
			C373.786,434.909,370.383,431.505,366.182,431.505z"/>
	</g>
</g>
<g>
	<g>
		<path d="M96.825,439.276H44.1c-4.2,0-7.604,3.405-7.604,7.604s3.404,7.604,7.604,7.604h52.725c4.2,0,7.604-3.405,7.604-7.604
			S101.025,439.276,96.825,439.276z"/>
	</g>
</g>
<g>
	<g>
		<path d="M339.541,439.276H122.173c-4.2,0-7.604,3.405-7.604,7.604s3.404,7.604,7.604,7.604h217.368c4.2,0,7.604-3.405,7.604-7.604
			S343.742,439.276,339.541,439.276z"/>
	</g>
</g>
<g>
	<g>
		<path d="M314.807,214.198c-4.2,0-7.604,3.405-7.604,7.604v7.31H117.611v-35.485h13.349c4.2,0,7.604-3.405,7.604-7.604
			s-3.404-7.604-7.604-7.604h-20.953c-4.2,0-7.604,3.405-7.604,7.604v50.693c0,4.199,3.404,7.604,7.604,7.604h204.8
			c4.2,0,7.604-3.405,7.604-7.604v-14.914C322.411,217.602,319.007,214.198,314.807,214.198z"/>
	</g>
</g>
<g>
	<g>
		<path d="M504.396,31.702H154.617c-4.2,0-7.604,3.405-7.604,7.604v160.19c0,4.199,3.404,7.604,7.604,7.604h291.992
			c4.2,0,7.604-3.405,7.604-7.604c0-4.199-3.404-7.604-7.604-7.604H162.221V46.91h334.571v144.982h-24.835
			c-4.2,0-7.604,3.405-7.604,7.604c0,4.199,3.404,7.604,7.604,7.604h32.438c4.2,0,7.604-3.405,7.604-7.604V39.306
			C512,35.107,508.596,31.702,504.396,31.702z"/>
	</g>
</g>
<g>
	<g>
		<path d="M241.868,76.584h-39.224c-4.285,0-7.515,3.483-7.515,8.102c0,4.543,3.301,8.102,7.515,8.102h11.364v57.829
			c-0.001,4.338,3.567,7.611,8.296,7.611c4.653,0,8.297-3.344,8.297-7.612V92.788h11.266c4.285,0,7.515-3.525,7.515-8.199
			C249.383,80.026,246.151,76.584,241.868,76.584z"/>
	</g>
</g>
<g>
	<g>
		<path d="M314.444,142.121h-26.233v-16.958h10.288c4.285,0,7.515-3.315,7.515-7.71c0-4.562-3.231-8.004-7.515-8.004h-10.288V92.689
			h26.233c4.285,0,7.515-3.525,7.515-8.199c0-4.507-3.231-7.906-7.515-7.906H279.62c-4.562,0-8.003,3.231-8.003,7.515v66.516
			c0,4.268,3.515,7.612,8.003,7.612h34.824c4.285,0,7.515-3.441,7.515-8.004C321.959,145.68,318.658,142.121,314.444,142.121z"/>
	</g>
</g>
<g>
	<g>
		<path d="M391.554,146.291l-15.695-28.947l15.31-28.55c0.807-1.437,1.216-2.95,1.216-4.5c0-4.434-3.902-7.906-8.884-7.906
			c-4.596,0-6.747,4.036-7.817,6.044l-9.595,18.323l-9.631-18.391c-1.034-1.94-3.186-5.977-7.781-5.977
			c-4.982,0-8.884,3.472-8.884,7.906c0,1.547,0.408,3.059,1.212,4.493l15.224,28.556l-15.535,28.811l-0.074,0.143
			c-0.621,1.246-0.925,2.499-0.925,3.829c0,4.89,4.682,8.297,8.884,8.297c4.557,0,6.64-4.08,7.541-5.881l9.968-18.86l9.968,18.859
			c0.901,1.804,2.982,5.882,7.541,5.882c4.203,0,8.885-3.408,8.885-8.297C392.483,148.793,392.179,147.539,391.554,146.291z"/>
	</g>
</g>
<g>
	<g>
		<path d="M456.369,76.584h-39.224c-4.285,0-7.515,3.483-7.515,8.102c0,4.543,3.301,8.102,7.515,8.102h11.364v57.829
			c0,4.339,3.568,7.612,8.297,7.612c4.653,0,8.297-3.344,8.297-7.612V92.788h11.266c4.285,0,7.515-3.525,7.515-8.199
			C463.884,80.025,460.653,76.584,456.369,76.584z"/>
	</g>
</g>
<g>
</g>
<g>
</g>
<g>
</g>
<g>
</g>
<g>
</g>
<g>
</g>
<g>
</g>
<g>
</g>
<g>
</g>
<g>
</g>
<g>
</g>
<g>
</g>
<g>
</g>
<g>
</g>
<g>
</g>
</svg>
