<svg id="Layer_1" enable-background="new 0 0 512 512" height="512" viewBox="0 0 512 512" width="512" xmlns="http://www.w3.org/2000/svg"><path d="m406 391h90v-240h-90c0-6.56 0-144.218 0-151h-345c-24.812 0-44.998 20.186-45 44.997v422.003c0 24.813 20.187 45 45 45h345zm60-30h-360v-180h360zm-405-331h315v30h-315c-8.271 0-15-6.729-15-15s6.729-15 15-15zm0 452c-8.271 0-15-6.729-15-15v-379.58c4.695 1.665 9.741 2.58 15 2.58h315v61h-300v240h300v91z"/><path d="m166 301h15c24.813 0 45-20.187 45-45s-20.187-45-45-45h-45v120h30zm0-60h15c8.271 0 15 6.729 15 15s-6.729 15-15 15h-15z"/><path d="m346 271c0-33.084-26.916-60-60-60h-30v120h30c33.084 0 60-26.916 60-60zm-60-30c16.542 0 30 13.458 30 30s-13.458 30-30 30z"/><path d="m406 301h30v-30h-30v-30h30v-30h-60v120h30z"/></svg>