<svg id="Layer_1" enable-background="new 0 0 512 512" height="512" viewBox="0 0 512 512" width="512" xmlns="http://www.w3.org/2000/svg"><path d="m61 90h345v-90h-345c-24.814 0-45 20.186-45 45s20.186 45 45 45z"/><path d="m76 422h420v-242h-420zm300-180h60v30h-30v30h30v30h-30v30h-30zm-120 0h30c33.076 0 60 26.909 60 60s-26.924 60-60 60h-30zm-120 0h45c24.814 0 45 20.186 45 45s-20.186 45-45 45h-15v30h-30z"/><path d="m61 512h345v-60h-360v-302h360v-30h-345c-16.952 0-32.428-5.861-45-15.377v362.377c0 24.814 20.186 45 45 45z"/><path d="m316 302c0-16.538-13.447-30-30-30v60c16.553 0 30-13.462 30-30z"/><path d="m196 287c0-8.276-6.738-15-15-15h-15v30h15c8.262 0 15-6.724 15-15z"/></svg>