<svg width="48" height="48" viewBox="0 0 48 48" xmlns="http://www.w3.org/2000/svg"><title>icon-toprated</title><desc>Created with Sketch.</desc><g fill="none"><ellipse fill="#D0D0D0" cx="24" cy="24" rx="23" ry="23"/><path d="M24.526 11.387l2.684 8.241c.076.234.295.393.542.393h8.686c.544 0 .77.694.33 1.013l-7.026 5.093c-.201.146-.285.403-.208.639l2.688 8.253c.167.512-.421.938-.857.621l-7.038-5.102c-.2-.145-.47-.145-.67 0l-7.004 5.077c-.447.324-1.049-.112-.878-.637l2.674-8.212c.077-.236-.007-.495-.209-.641l-7.004-5.077c-.446-.324-.217-1.028.335-1.028h8.687c.231 0 .436-.148.507-.368l2.692-8.266c.168-.516.9-.516 1.069 0" fill="#222"/></g></svg>